# File created by Blade
# Date/Time:  Tue Apr 07 20:53:11 2015
# Frame Rate: 120.000 fps
#------------------------------------------------------
:FULLY-SPECIFIED
:DEGREES
427
root -26.571533 32.758341 5.415642 15.568446 -77.929250 -9.755372
Spine -15.855590 -11.699370 0.901599
Head 27.853933 -5.188744 2.533554
LeftShoulder -16.575276 18.794872 45.788661
LeftArm 124.467198 -62.114518 -75.859829
LeftForeArm 25.056741 -0.000000 19.568757
LeftHand 18.189465 -0.000000 35.544606
LeftHandThumb1 -26.253704 0.000000 33.147579
RightShoulder -21.559737 34.775971 -61.794074
RightArm 59.825505 23.729154 35.404675
RightForeArm -21.546045 -0.000000 13.856204
RightHand 28.614645 0.000000 -50.097695
RightHandThumb1 -24.326973 -0.000000 -32.862282
LeftUpLeg 4.747461 -4.752288 -1.154255
LeftLeg 6.981563 -0.000000 -0.000000
LeftFoot -18.366215 8.460091 -20.050195
LeftToeBase -9.911283 -0.000000 0.000000
RightUpLeg -13.318916 -7.153775 9.097270
RightLeg -5.956381 -0.000000 0.000000
RightFoot 6.838119 -15.708273 3.377776
RightToeBase 6.521806 -0.000000 -0.000000
428
root -26.683094 32.758304 5.413350 15.968154 -77.686142 -10.019243
Spine -16.272768 -11.771633 1.106224
Head 27.829929 -5.275704 2.457642
LeftShoulder -16.566076 18.737479 45.769896
LeftArm 124.261183 -62.121667 -75.727332
LeftForeArm 25.062426 -0.000000 19.640896
LeftHand 18.174104 -0.000000 35.605379
LeftHandThumb1 -26.253704 0.000000 33.147579
RightShoulder -21.579510 34.730481 -61.808219
RightArm 59.749722 23.754087 35.328237
RightForeArm -21.698139 -0.000000 14.031653
RightHand 28.549038 -0.000000 -49.901890
RightHandThumb1 -24.326973 -0.000000 -32.862282
LeftUpLeg 4.459919 -5.488269 -1.083977
LeftLeg 7.661284 -0.000000 -0.000000
LeftFoot -18.943920 8.853289 -20.402340
LeftToeBase -9.609072 -0.000000 0.000000
RightUpLeg -13.186388 -7.155092 9.192105
RightLeg -6.150747 -0.000000 0.000000
RightFoot 6.777125 -15.826165 3.248332
RightToeBase 6.316838 -0.000000 -0.000000
429
root -26.789232 32.757877 5.414077 16.295042 -77.435202 -10.249853
Spine -16.627976 -11.842608 1.311053
Head 27.799483 -5.364147 2.331137
LeftShoulder -16.590665 18.642762 45.760531
LeftArm 124.107913 -62.021447 -75.717321
LeftForeArm 25.207954 0.000000 19.774886
LeftHand 18.175951 -0.000000 35.699781
LeftHandThumb1 -26.253704 0.000000 33.147579
RightShoulder -21.570610 34.614753 -61.790511
RightArm 59.749530 23.861763 35.257639
RightForeArm -21.583541 -0.000000 14.193126
RightHand 28.163759 -0.000000 -50.387584
RightHandThumb1 -24.326973 -0.000000 -32.862282
LeftUpLeg 4.201331 -6.301798 -1.040943
LeftLeg 8.348642 -0.000000 -0.000000
LeftFoot -19.578670 9.288475 -20.637649
LeftToeBase -9.166033 -0.000000 0.000000
RightUpLeg -13.053308 -7.202946 9.294042
RightLeg -6.284667 -0.000000 0.000000
RightFoot 6.707068 -15.902346 3.081227
RightToeBase 6.086255 -0.000000 -0.000000
430
root -26.889423 32.754864 5.414770 16.653905 -77.251915 -10.556572
Spine -16.905359 -11.832017 1.494770
Head 27.730718 -5.458830 2.224881
LeftShoulder -16.606555 18.572952 45.756711
LeftArm 123.993041 -61.979550 -75.739381
LeftForeArm 25.216474 -0.000000 19.899157
LeftHand 18.193973 -0.000000 35.829758
LeftHandThumb1 -26.253704 0.000000 33.147579
RightShoulder -21.617612 34.689843 -61.875994
RightArm 59.614726 23.830268 35.165009
RightForeArm -21.698302 -0.000000 14.293525
RightHand 28.110863 -0.000000 -50.429470
RightHandThumb1 -24.326973 -0.000000 -32.862282
LeftUpLeg 4.005117 -7.143485 -1.011450
LeftLeg 9.006412 -0.000000 -0.000000
LeftFoot -20.237594 9.767727 -21.052687
LeftToeBase -8.916264 -0.000000 0.000000
RightUpLeg -12.916085 -7.196637 9.402362
RightLeg -6.353544 -0.000000 0.000000
RightFoot 6.570928 -15.984164 2.850538
RightToeBase 5.753611 -0.000000 -0.000000
